<?xml version="1.0" encoding="utf-8"?>
<!-- Generator: Adobe Illustrator 25.2.1, SVG Export Plug-In . SVG Version: 6.00 Build 0)  -->
<svg version="1.1" id="Layer_1" focusable="false" xmlns="http://www.w3.org/2000/svg" xmlns:xlink="http://www.w3.org/1999/xlink"
	 x="0px" y="0px" viewBox="0 0 512 512" style="enable-background:new 0 0 512 512;" xml:space="preserve">
<path d="M343.3-0.3l16,0c13.3,0,24,10.7,24.1,23.9l1,360l48-0.1c21.4-0.1,32.1,25.8,17.1,40.9l-79.8,80.2
	c-9.3,9.4-24.5,9.4-33.9,0.1L255.5,425c-15.1-15-4.6-41,16.9-41l48-0.1l-1-360C319.3,10.6,330-0.2,343.3-0.3z M192.7,488.2l-1-360
	l48-0.1c21.3-0.1,32-26,16.9-41L176.3,7.3c-9.4-9.3-24.6-9.3-33.9,0.1L62.5,87.6c-15,15.1-4.3,41,17.1,40.9l48-0.1l1,360
	c0,13.3,10.8,24,24.1,23.9l16,0C182,512.2,192.7,501.4,192.7,488.2z"/>
</svg>
